<svg xmlns="http://www.w3.org/2000/svg" viewBox="0 0 236.61 75"><path d="M36.82 75C16.46 75 0 58.26 0 37.55S16.46 0 36.82 0s36.93 16.75 36.93 37.55S57.08 75 36.82 75ZM15.07 37.55c0 12.08 9.88 22.12 21.75 22.12s21.56-10 21.56-22.12-9.68-22.22-21.56-22.22-21.75 10.14-21.75 22.22Zm137.45-5.5c-5.75 0-21-.08-28.64-.09a3.37 3.37 0 0 0-2.94 1.73l-4.39 7.79a2.58 2.58 0 0 0 2.2 3.86h19.65a21.69 21.69 0 0 1-20.15 14.32c-11.88 0-21.75-10-21.75-22.12s9.87-22.22 21.75-22.22a21.47 21.47 0 0 1 18.18 10.39 3.45 3.45 0 0 0 2.9 1.67H149a3.46 3.46 0 0 0 3.11-4.85 36.45 36.45 0 0 0-1.63-3.32A36.86 36.86 0 0 0 118.25 0c-20.59 0-37.2 17.13-36.81 38.26.34 19.41 15.56 35.54 34.62 36.67 21.24 1.26 39.12-15.93 39.12-37.39 0-1.06 0-2.11-.12-3.14a2.57 2.57 0 0 0-2.53-2.4Zm79.38-12.83A36.88 36.88 0 0 0 199.68 0c-20.59 0-37.2 17.13-36.82 38.26.35 19.41 15.56 35.54 34.63 36.67 21.23 1.26 39.12-15.94 39.12-37.39a37.82 37.82 0 0 0-4.71-18.33Zm-54 18.33c0-13.58 12.5-24.73 26.29-21.73a21.92 21.92 0 0 1 16.53 17 22.5 22.5 0 0 1-4.51 18.84l-7-12.42a3.38 3.38 0 0 0-2.94-1.73h-8.62a2.59 2.59 0 0 0-2.21 3.88l9.87 17.51a21.19 21.19 0 0 1-5.66.78c-11.87 0-21.75-10-21.75-22.12Z" style="fill:#00c389"/></svg>